<mxfile host="app.diagrams.net" modified="2024-07-16T05:01:09.214Z" agent="Mozilla/5.0 (Macintosh; Intel Mac OS X 10_15_7) AppleWebKit/605.1.15 (KHTML, like Gecko) Version/17.5 Safari/605.1.15" etag="YMrhYmJ-a4x_BjzF3tU-" version="24.6.5" type="github">
  <diagram id="3yLI1t425MeNp9wt49uc" name="Page-1">
    <mxGraphModel dx="4385" dy="1168" grid="1" gridSize="10" guides="1" tooltips="1" connect="1" arrows="1" fold="1" page="0" pageScale="1" pageWidth="850" pageHeight="1100" background="none" math="0" shadow="0">
      <root>
        <mxCell id="0" />
        <mxCell id="1" parent="0" />
        <mxCell id="W9UAVMt72HHUDF0PWZjW-2" value="" style="rounded=0;whiteSpace=wrap;html=1;strokeWidth=5;fontSize=37;fontColor=#CC99FF;labelBackgroundColor=none;fillColor=none;strokeColor=#CC99FF;" parent="1" vertex="1">
          <mxGeometry x="1120" y="2239.17" width="320" height="120" as="geometry" />
        </mxCell>
        <mxCell id="W9UAVMt72HHUDF0PWZjW-5" style="edgeStyle=orthogonalEdgeStyle;rounded=0;html=1;jettySize=auto;orthogonalLoop=1;strokeWidth=6;fontSize=37;endArrow=blockThin;fontColor=#CC99FF;strokeColor=#CC99FF;labelBackgroundColor=#333333;endFill=1;endSize=10;" parent="1" edge="1">
          <mxGeometry relative="1" as="geometry">
            <mxPoint x="1480" y="2240" as="sourcePoint" />
            <mxPoint x="1800" y="2240" as="targetPoint" />
            <Array as="points" />
          </mxGeometry>
        </mxCell>
        <mxCell id="W9UAVMt72HHUDF0PWZjW-7" style="edgeStyle=orthogonalEdgeStyle;rounded=0;html=1;jettySize=auto;orthogonalLoop=1;strokeWidth=5;fontSize=37;endArrow=block;fontColor=#CC99FF;strokeColor=#CC99FF;labelBackgroundColor=#333333;endFill=0;endSize=17;" parent="1" edge="1">
          <mxGeometry relative="1" as="geometry">
            <mxPoint x="1480" y="2280" as="sourcePoint" />
            <mxPoint x="1800" y="2280" as="targetPoint" />
            <Array as="points" />
          </mxGeometry>
        </mxCell>
        <mxCell id="W9UAVMt72HHUDF0PWZjW-10" style="edgeStyle=orthogonalEdgeStyle;rounded=0;html=1;jettySize=auto;orthogonalLoop=1;strokeWidth=6;fontSize=37;endArrow=blockThin;fontColor=#CC99FF;strokeColor=#CC99FF;labelBackgroundColor=#333333;endFill=1;endSize=10;dashed=1;" parent="1" edge="1">
          <mxGeometry relative="1" as="geometry">
            <mxPoint x="1480" y="2319.09" as="sourcePoint" />
            <mxPoint x="1800" y="2319.09" as="targetPoint" />
            <Array as="points" />
          </mxGeometry>
        </mxCell>
        <mxCell id="W9UAVMt72HHUDF0PWZjW-11" style="edgeStyle=orthogonalEdgeStyle;rounded=0;html=1;jettySize=auto;orthogonalLoop=1;strokeWidth=5;fontSize=37;endArrow=block;fontColor=#CC99FF;strokeColor=#CC99FF;labelBackgroundColor=#333333;endFill=0;endSize=17;dashed=1;" parent="1" edge="1">
          <mxGeometry relative="1" as="geometry">
            <mxPoint x="1480" y="2359.09" as="sourcePoint" />
            <mxPoint x="1800" y="2359.09" as="targetPoint" />
            <Array as="points" />
          </mxGeometry>
        </mxCell>
        <mxCell id="W9UAVMt72HHUDF0PWZjW-12" value="" style="rounded=0;whiteSpace=wrap;html=1;strokeWidth=5;fontSize=37;fontColor=#FF8000;labelBackgroundColor=none;fillColor=none;strokeColor=#FF8000;" parent="1" vertex="1">
          <mxGeometry x="1120" y="2440" width="320" height="120" as="geometry" />
        </mxCell>
        <mxCell id="W9UAVMt72HHUDF0PWZjW-13" style="edgeStyle=orthogonalEdgeStyle;rounded=0;html=1;jettySize=auto;orthogonalLoop=1;strokeWidth=6;fontSize=37;endArrow=blockThin;fontColor=#FF8000;strokeColor=#FF8000;labelBackgroundColor=#333333;endFill=1;endSize=10;" parent="1" edge="1">
          <mxGeometry relative="1" as="geometry">
            <mxPoint x="1480" y="2440.83" as="sourcePoint" />
            <mxPoint x="1800" y="2440.83" as="targetPoint" />
            <Array as="points" />
          </mxGeometry>
        </mxCell>
        <mxCell id="W9UAVMt72HHUDF0PWZjW-14" style="edgeStyle=orthogonalEdgeStyle;rounded=0;html=1;jettySize=auto;orthogonalLoop=1;strokeWidth=5;fontSize=37;endArrow=block;fontColor=#FF8000;strokeColor=#FF8000;labelBackgroundColor=#333333;endFill=0;endSize=17;" parent="1" edge="1">
          <mxGeometry relative="1" as="geometry">
            <mxPoint x="1480" y="2480.83" as="sourcePoint" />
            <mxPoint x="1800" y="2480.83" as="targetPoint" />
            <Array as="points" />
          </mxGeometry>
        </mxCell>
        <mxCell id="W9UAVMt72HHUDF0PWZjW-15" style="edgeStyle=orthogonalEdgeStyle;rounded=0;html=1;jettySize=auto;orthogonalLoop=1;strokeWidth=6;fontSize=37;endArrow=blockThin;fontColor=#FF8000;strokeColor=#FF8000;labelBackgroundColor=#333333;endFill=1;endSize=10;dashed=1;" parent="1" edge="1">
          <mxGeometry relative="1" as="geometry">
            <mxPoint x="1480" y="2519.92" as="sourcePoint" />
            <mxPoint x="1800" y="2519.92" as="targetPoint" />
            <Array as="points" />
          </mxGeometry>
        </mxCell>
        <mxCell id="W9UAVMt72HHUDF0PWZjW-16" style="edgeStyle=orthogonalEdgeStyle;rounded=0;html=1;jettySize=auto;orthogonalLoop=1;strokeWidth=5;fontSize=37;endArrow=block;fontColor=#FF8000;strokeColor=#FF8000;labelBackgroundColor=#333333;endFill=0;endSize=17;dashed=1;" parent="1" edge="1">
          <mxGeometry relative="1" as="geometry">
            <mxPoint x="1480" y="2559.92" as="sourcePoint" />
            <mxPoint x="1800" y="2559.92" as="targetPoint" />
            <Array as="points" />
          </mxGeometry>
        </mxCell>
        <mxCell id="W9UAVMt72HHUDF0PWZjW-17" value="" style="rounded=0;whiteSpace=wrap;html=1;strokeWidth=5;fontSize=37;fontColor=#00CC00;labelBackgroundColor=none;fillColor=none;strokeColor=#00CC00;" parent="1" vertex="1">
          <mxGeometry x="1120" y="2640" width="320" height="120" as="geometry" />
        </mxCell>
        <mxCell id="W9UAVMt72HHUDF0PWZjW-18" style="edgeStyle=orthogonalEdgeStyle;rounded=0;html=1;jettySize=auto;orthogonalLoop=1;strokeWidth=6;fontSize=37;endArrow=blockThin;fontColor=#00CC00;strokeColor=#00CC00;labelBackgroundColor=#333333;endFill=1;endSize=10;" parent="1" edge="1">
          <mxGeometry relative="1" as="geometry">
            <mxPoint x="1480" y="2640.83" as="sourcePoint" />
            <mxPoint x="1800" y="2640.83" as="targetPoint" />
            <Array as="points" />
          </mxGeometry>
        </mxCell>
        <mxCell id="W9UAVMt72HHUDF0PWZjW-19" style="edgeStyle=orthogonalEdgeStyle;rounded=0;html=1;jettySize=auto;orthogonalLoop=1;strokeWidth=5;fontSize=37;endArrow=block;fontColor=#00CC00;strokeColor=#00CC00;labelBackgroundColor=#333333;endFill=0;endSize=17;" parent="1" edge="1">
          <mxGeometry relative="1" as="geometry">
            <mxPoint x="1480" y="2680.83" as="sourcePoint" />
            <mxPoint x="1800" y="2680.83" as="targetPoint" />
            <Array as="points" />
          </mxGeometry>
        </mxCell>
        <mxCell id="W9UAVMt72HHUDF0PWZjW-20" style="edgeStyle=orthogonalEdgeStyle;rounded=0;html=1;jettySize=auto;orthogonalLoop=1;strokeWidth=6;fontSize=37;endArrow=blockThin;fontColor=#00CC00;strokeColor=#00CC00;labelBackgroundColor=#333333;endFill=1;endSize=10;dashed=1;" parent="1" edge="1">
          <mxGeometry relative="1" as="geometry">
            <mxPoint x="1480" y="2719.92" as="sourcePoint" />
            <mxPoint x="1800" y="2719.92" as="targetPoint" />
            <Array as="points" />
          </mxGeometry>
        </mxCell>
        <mxCell id="W9UAVMt72HHUDF0PWZjW-21" style="edgeStyle=orthogonalEdgeStyle;rounded=0;html=1;jettySize=auto;orthogonalLoop=1;strokeWidth=5;fontSize=37;endArrow=block;fontColor=#00CC00;strokeColor=#00CC00;labelBackgroundColor=#333333;endFill=0;endSize=17;dashed=1;" parent="1" edge="1">
          <mxGeometry relative="1" as="geometry">
            <mxPoint x="1480" y="2759.92" as="sourcePoint" />
            <mxPoint x="1800" y="2759.92" as="targetPoint" />
            <Array as="points" />
          </mxGeometry>
        </mxCell>
        <mxCell id="W9UAVMt72HHUDF0PWZjW-22" value="" style="rounded=0;whiteSpace=wrap;html=1;strokeWidth=5;fontSize=37;fontColor=#1BA1E2;labelBackgroundColor=none;fillColor=none;strokeColor=#1BA1E2;" parent="1" vertex="1">
          <mxGeometry x="1120" y="2840" width="320" height="120" as="geometry" />
        </mxCell>
        <mxCell id="W9UAVMt72HHUDF0PWZjW-23" style="edgeStyle=orthogonalEdgeStyle;rounded=0;html=1;jettySize=auto;orthogonalLoop=1;strokeWidth=6;fontSize=37;endArrow=blockThin;fontColor=#1BA1E2;strokeColor=#1BA1E2;labelBackgroundColor=#333333;endFill=1;endSize=10;" parent="1" edge="1">
          <mxGeometry relative="1" as="geometry">
            <mxPoint x="1480" y="2840.83" as="sourcePoint" />
            <mxPoint x="1800" y="2840.83" as="targetPoint" />
            <Array as="points" />
          </mxGeometry>
        </mxCell>
        <mxCell id="W9UAVMt72HHUDF0PWZjW-24" style="edgeStyle=orthogonalEdgeStyle;rounded=0;html=1;jettySize=auto;orthogonalLoop=1;strokeWidth=5;fontSize=37;endArrow=block;fontColor=#1BA1E2;strokeColor=#1BA1E2;labelBackgroundColor=#333333;endFill=0;endSize=17;" parent="1" edge="1">
          <mxGeometry relative="1" as="geometry">
            <mxPoint x="1480" y="2880.83" as="sourcePoint" />
            <mxPoint x="1800" y="2880.83" as="targetPoint" />
            <Array as="points" />
          </mxGeometry>
        </mxCell>
        <mxCell id="W9UAVMt72HHUDF0PWZjW-25" style="edgeStyle=orthogonalEdgeStyle;rounded=0;html=1;jettySize=auto;orthogonalLoop=1;strokeWidth=6;fontSize=37;endArrow=blockThin;fontColor=#1BA1E2;strokeColor=#1BA1E2;labelBackgroundColor=#333333;endFill=1;endSize=10;dashed=1;" parent="1" edge="1">
          <mxGeometry relative="1" as="geometry">
            <mxPoint x="1480" y="2919.92" as="sourcePoint" />
            <mxPoint x="1800" y="2919.92" as="targetPoint" />
            <Array as="points" />
          </mxGeometry>
        </mxCell>
        <mxCell id="W9UAVMt72HHUDF0PWZjW-26" style="edgeStyle=orthogonalEdgeStyle;rounded=0;html=1;jettySize=auto;orthogonalLoop=1;strokeWidth=5;fontSize=37;endArrow=block;fontColor=#1BA1E2;strokeColor=#1BA1E2;labelBackgroundColor=#333333;endFill=0;endSize=17;dashed=1;" parent="1" edge="1">
          <mxGeometry relative="1" as="geometry">
            <mxPoint x="1480" y="2959.92" as="sourcePoint" />
            <mxPoint x="1800" y="2959.92" as="targetPoint" />
            <Array as="points" />
          </mxGeometry>
        </mxCell>
        <mxCell id="W9UAVMt72HHUDF0PWZjW-27" value="" style="rounded=0;whiteSpace=wrap;html=1;strokeWidth=5;fontSize=37;fontColor=#FFFF33;labelBackgroundColor=none;fillColor=none;strokeColor=#FFFF33;" parent="1" vertex="1">
          <mxGeometry x="1120" y="3040" width="320" height="120" as="geometry" />
        </mxCell>
        <mxCell id="W9UAVMt72HHUDF0PWZjW-28" style="edgeStyle=orthogonalEdgeStyle;rounded=0;html=1;jettySize=auto;orthogonalLoop=1;strokeWidth=6;fontSize=37;endArrow=blockThin;fontColor=#FFFF33;strokeColor=#FFFF33;labelBackgroundColor=#333333;endFill=1;endSize=10;" parent="1" edge="1">
          <mxGeometry relative="1" as="geometry">
            <mxPoint x="1480" y="3040.83" as="sourcePoint" />
            <mxPoint x="1800" y="3040.83" as="targetPoint" />
            <Array as="points" />
          </mxGeometry>
        </mxCell>
        <mxCell id="W9UAVMt72HHUDF0PWZjW-29" style="edgeStyle=orthogonalEdgeStyle;rounded=0;html=1;jettySize=auto;orthogonalLoop=1;strokeWidth=5;fontSize=37;endArrow=block;fontColor=#FFFF33;strokeColor=#FFFF33;labelBackgroundColor=#333333;endFill=0;endSize=17;" parent="1" edge="1">
          <mxGeometry relative="1" as="geometry">
            <mxPoint x="1480" y="3080.83" as="sourcePoint" />
            <mxPoint x="1800" y="3080.83" as="targetPoint" />
            <Array as="points" />
          </mxGeometry>
        </mxCell>
        <mxCell id="W9UAVMt72HHUDF0PWZjW-30" style="edgeStyle=orthogonalEdgeStyle;rounded=0;html=1;jettySize=auto;orthogonalLoop=1;strokeWidth=6;fontSize=37;endArrow=blockThin;fontColor=#FFFF33;strokeColor=#FFFF33;labelBackgroundColor=#333333;endFill=1;endSize=10;dashed=1;" parent="1" edge="1">
          <mxGeometry relative="1" as="geometry">
            <mxPoint x="1480" y="3119.92" as="sourcePoint" />
            <mxPoint x="1800" y="3119.92" as="targetPoint" />
            <Array as="points" />
          </mxGeometry>
        </mxCell>
        <mxCell id="W9UAVMt72HHUDF0PWZjW-31" style="edgeStyle=orthogonalEdgeStyle;rounded=0;html=1;jettySize=auto;orthogonalLoop=1;strokeWidth=5;fontSize=37;endArrow=block;fontColor=#FFFF33;strokeColor=#FFFF33;labelBackgroundColor=#333333;endFill=0;endSize=17;dashed=1;" parent="1" edge="1">
          <mxGeometry relative="1" as="geometry">
            <mxPoint x="1480" y="3159.92" as="sourcePoint" />
            <mxPoint x="1800" y="3159.92" as="targetPoint" />
            <Array as="points" />
          </mxGeometry>
        </mxCell>
        <mxCell id="W9UAVMt72HHUDF0PWZjW-32" value="" style="rounded=0;whiteSpace=wrap;html=1;strokeWidth=5;fontSize=37;fontColor=#FF3399;labelBackgroundColor=none;fillColor=none;strokeColor=#FF3399;" parent="1" vertex="1">
          <mxGeometry x="1120" y="3240" width="320" height="120" as="geometry" />
        </mxCell>
        <mxCell id="W9UAVMt72HHUDF0PWZjW-33" style="edgeStyle=orthogonalEdgeStyle;rounded=0;html=1;jettySize=auto;orthogonalLoop=1;strokeWidth=5;fontSize=37;endArrow=classic;fontColor=#FF3399;strokeColor=#FF0080;labelBackgroundColor=#333333;endFill=1;endSize=10;" parent="1" edge="1">
          <mxGeometry relative="1" as="geometry">
            <mxPoint x="1480" y="3240.83" as="sourcePoint" />
            <mxPoint x="1800" y="3240.83" as="targetPoint" />
            <Array as="points" />
          </mxGeometry>
        </mxCell>
        <mxCell id="W9UAVMt72HHUDF0PWZjW-34" style="edgeStyle=orthogonalEdgeStyle;rounded=0;html=1;jettySize=auto;orthogonalLoop=1;strokeWidth=5;fontSize=37;endArrow=block;fontColor=#FF3399;strokeColor=#FF0080;labelBackgroundColor=#333333;endFill=0;endSize=20;" parent="1" edge="1">
          <mxGeometry relative="1" as="geometry">
            <mxPoint x="1480" y="3280.83" as="sourcePoint" />
            <mxPoint x="1800" y="3280.83" as="targetPoint" />
            <Array as="points" />
          </mxGeometry>
        </mxCell>
        <mxCell id="W9UAVMt72HHUDF0PWZjW-35" style="edgeStyle=orthogonalEdgeStyle;rounded=0;html=1;jettySize=auto;orthogonalLoop=1;strokeWidth=5;fontSize=37;endArrow=classic;fontColor=#FF3399;strokeColor=#FF0080;labelBackgroundColor=#333333;endFill=1;endSize=10;dashed=1;" parent="1" edge="1">
          <mxGeometry relative="1" as="geometry">
            <mxPoint x="1480" y="3319.92" as="sourcePoint" />
            <mxPoint x="1800" y="3319.92" as="targetPoint" />
            <Array as="points" />
          </mxGeometry>
        </mxCell>
        <mxCell id="W9UAVMt72HHUDF0PWZjW-36" style="edgeStyle=orthogonalEdgeStyle;rounded=0;html=1;jettySize=auto;orthogonalLoop=1;strokeWidth=5;fontSize=37;endArrow=block;fontColor=#FF3399;strokeColor=#FF0080;labelBackgroundColor=#333333;endFill=0;endSize=18;dashed=1;" parent="1" edge="1">
          <mxGeometry relative="1" as="geometry">
            <mxPoint x="1480" y="3359.92" as="sourcePoint" />
            <mxPoint x="1800" y="3359.92" as="targetPoint" />
            <Array as="points" />
          </mxGeometry>
        </mxCell>
      </root>
    </mxGraphModel>
  </diagram>
</mxfile>
